<svg width="202" height="45" viewBox="0 0 202 45" fill="none" xmlns="http://www.w3.org/2000/svg">
<path d="M6.76 30V29.24C7.45333 29.2133 7.96667 29.1467 8.3 29.04C8.64667 28.92 8.87333 28.7 8.98 28.38C9.1 28.06 9.16 27.5867 9.16 26.96V17.64C9.16 17.0133 9.11333 16.5467 9.02 16.24C8.92667 15.92 8.73333 15.7 8.44 15.58C8.16 15.46 7.73333 15.3867 7.16 15.36V14.6H13.14C14.94 14.6 16.34 14.9267 17.34 15.58C18.34 16.22 18.84 17.1267 18.84 18.3C18.84 19.1533 18.5533 19.8667 17.98 20.44C17.42 21 16.5533 21.4533 15.38 21.8V21.88C16.2467 21.9467 17.0533 22.14 17.8 22.46C18.56 22.7667 19.1733 23.2067 19.64 23.78C20.1067 24.34 20.34 25.04 20.34 25.88C20.34 26.6267 20.1467 27.3133 19.76 27.94C19.3733 28.5533 18.8667 29.0267 18.24 29.36C17.7867 29.6 17.2333 29.7667 16.58 29.86C15.94 29.9533 15.0667 30 13.96 30H6.76ZM14 29.14C16.4267 29.14 17.64 28.12 17.64 26.08C17.64 25.3067 17.4733 24.6467 17.14 24.1C16.82 23.54 16.3733 23.1267 15.8 22.86C15.3867 22.66 14.8867 22.5333 14.3 22.48C13.7267 22.4267 13.0133 22.4 12.16 22.4H11.26V26.86C11.26 27.6733 11.4733 28.26 11.9 28.62C12.3267 28.9667 13.0267 29.14 14 29.14ZM11.26 21.4H12.38C13.2467 21.4 13.88 21.36 14.28 21.28C14.68 21.1867 14.9867 21.0733 15.2 20.94C15.5467 20.7267 15.82 20.4067 16.02 19.98C16.22 19.5533 16.32 19.02 16.32 18.38C16.32 17.42 16.06 16.7067 15.54 16.24C15.0333 15.7733 14.2333 15.54 13.14 15.54H11.6C11.3733 15.54 11.26 15.6533 11.26 15.88V21.4ZM30.092 30.2C28.5854 30.2 27.2787 29.8867 26.172 29.26C25.0787 28.6333 24.232 27.7533 23.632 26.62C23.032 25.4733 22.732 24.12 22.732 22.56C22.732 20.9467 23.052 19.5267 23.692 18.3C24.3454 17.0733 25.2454 16.12 26.392 15.44C27.552 14.7467 28.8854 14.4 30.392 14.4C31.192 14.4 31.9454 14.5133 32.652 14.74C33.372 14.9667 34.1387 15.3333 34.952 15.84L35.372 14.6H36.072L35.812 19.2H34.852C34.852 18.3333 34.6454 17.6267 34.232 17.08C33.8187 16.52 33.2854 16.1067 32.632 15.84C31.9787 15.5733 31.292 15.44 30.572 15.44C29.492 15.44 28.5654 15.72 27.792 16.28C27.032 16.84 26.4454 17.6467 26.032 18.7C25.6187 19.74 25.412 20.9867 25.412 22.44C25.412 24.5733 25.8587 26.22 26.752 27.38C27.6587 28.54 28.952 29.12 30.632 29.12C31.4987 29.12 32.232 28.9867 32.832 28.72C33.4454 28.4533 33.912 28.1067 34.232 27.68C34.552 27.2533 34.712 26.7933 34.712 26.3C34.712 25.5133 34.552 24.9867 34.232 24.72C33.9254 24.4533 33.4187 24.32 32.712 24.32V23.56H38.392V24.32C37.7387 24.32 37.2987 24.4467 37.072 24.7C36.8587 24.94 36.752 25.4067 36.752 26.1V28.34C36.4187 28.34 36.112 28.3667 35.832 28.42C35.5654 28.46 35.2654 28.5467 34.932 28.68C34.612 28.8133 34.1987 29.0267 33.692 29.32C33.2387 29.5733 32.6987 29.7867 32.072 29.96C31.4587 30.12 30.7987 30.2 30.092 30.2Z" fill="white"/>
<circle cx="22.5" cy="22.5" r="21.5" stroke="white" stroke-width="2"/>
<path d="M52.799 19V11.7273H53.8963V18.0554H57.1918V19H52.799ZM59.429 19H58.2642L60.8814 11.7273H62.1491L64.7663 19H63.6016L61.5455 13.0483H61.4886L59.429 19ZM59.6243 16.152H63.4027V17.0753H59.6243V16.152ZM65.8166 19V11.7273H68.4799C68.996 11.7273 69.4234 11.8125 69.7619 11.983C70.1004 12.151 70.3538 12.3795 70.5218 12.6683C70.6899 12.9548 70.774 13.2779 70.774 13.6378C70.774 13.9408 70.7183 14.1965 70.6071 14.4048C70.4958 14.6108 70.3467 14.7765 70.1596 14.902C69.975 15.0251 69.7714 15.1151 69.5488 15.1719V15.2429C69.7903 15.2547 70.0259 15.3329 70.2555 15.4773C70.4875 15.6193 70.6793 15.8217 70.8308 16.0845C70.9823 16.3473 71.0581 16.6669 71.0581 17.0433C71.0581 17.415 70.9705 17.7488 70.7953 18.0447C70.6225 18.3383 70.3549 18.5715 69.9927 18.7443C69.6305 18.9148 69.1677 19 68.6042 19H65.8166ZM66.9139 18.0589H68.4977C69.0233 18.0589 69.3997 17.9571 69.627 17.7536C69.8542 17.55 69.9679 17.2955 69.9679 16.9901C69.9679 16.7604 69.9099 16.5497 69.7939 16.358C69.6779 16.1662 69.5121 16.0135 69.2967 15.8999C69.0836 15.7862 68.8303 15.7294 68.5368 15.7294H66.9139V18.0589ZM66.9139 14.8736H68.3841C68.6303 14.8736 68.8516 14.8262 69.0481 14.7315C69.247 14.6368 69.4044 14.5043 69.5204 14.3338C69.6388 14.161 69.698 13.9574 69.698 13.723C69.698 13.4223 69.5926 13.1702 69.3819 12.9666C69.1712 12.763 68.8481 12.6612 68.4125 12.6612H66.9139V14.8736ZM78.677 15.3636C78.677 16.1402 78.535 16.8078 78.2509 17.3665C77.9668 17.9228 77.5774 18.3513 77.0826 18.652C76.5901 18.9503 76.0302 19.0994 75.4029 19.0994C74.7731 19.0994 74.2109 18.9503 73.7161 18.652C73.2237 18.3513 72.8354 17.9216 72.5513 17.3629C72.2672 16.8042 72.1252 16.1378 72.1252 15.3636C72.1252 14.5871 72.2672 13.9207 72.5513 13.3643C72.8354 12.8056 73.2237 12.3771 73.7161 12.0788C74.2109 11.7782 74.7731 11.6278 75.4029 11.6278C76.0302 11.6278 76.5901 11.7782 77.0826 12.0788C77.5774 12.3771 77.9668 12.8056 78.2509 13.3643C78.535 13.9207 78.677 14.5871 78.677 15.3636ZM77.5904 15.3636C77.5904 14.7718 77.4945 14.2734 77.3027 13.8686C77.1133 13.4614 76.8529 13.1536 76.5215 12.9453C76.1924 12.7346 75.8195 12.6293 75.4029 12.6293C74.9838 12.6293 74.6098 12.7346 74.2807 12.9453C73.9516 13.1536 73.6912 13.4614 73.4995 13.8686C73.3101 14.2734 73.2154 14.7718 73.2154 15.3636C73.2154 15.9555 73.3101 16.455 73.4995 16.8622C73.6912 17.267 73.9516 17.5748 74.2807 17.7855C74.6098 17.9938 74.9838 18.098 75.4029 18.098C75.8195 18.098 76.1924 17.9938 76.5215 17.7855C76.8529 17.5748 77.1133 17.267 77.3027 16.8622C77.4945 16.455 77.5904 15.9555 77.5904 15.3636ZM80.0451 19V11.7273H82.6374C83.2009 11.7273 83.6684 11.8243 84.0401 12.0185C84.4142 12.2126 84.6935 12.4813 84.8782 12.8246C85.0629 13.1655 85.1552 13.5597 85.1552 14.0071C85.1552 14.4522 85.0617 14.844 84.8746 15.1825C84.69 15.5187 84.4106 15.7803 84.0366 15.9673C83.6649 16.1544 83.1973 16.2479 82.6339 16.2479H80.6701V15.3033H82.5344C82.8896 15.3033 83.1784 15.2524 83.4009 15.1506C83.6258 15.0488 83.7904 14.9008 83.8945 14.7067C83.9987 14.5125 84.0508 14.2794 84.0508 14.0071C84.0508 13.7325 83.9975 13.4946 83.891 13.2933C83.7868 13.0921 83.6223 12.9382 83.3974 12.8317C83.1748 12.7228 82.8825 12.6683 82.5202 12.6683H81.1424V19H80.0451ZM83.6353 15.7188L85.4322 19H84.1822L82.4208 15.7188H83.6353ZM87.1048 19H85.94L88.5572 11.7273H89.8249L92.4421 19H91.2773L89.2212 13.0483H89.1644L87.1048 19ZM87.3001 16.152H91.0785V17.0753H87.3001V16.152ZM92.2743 12.6719V11.7273H97.9029V12.6719H95.6337V19H94.54V12.6719H92.2743ZM105.152 15.3636C105.152 16.1402 105.01 16.8078 104.725 17.3665C104.441 17.9228 104.052 18.3513 103.557 18.652C103.065 18.9503 102.505 19.0994 101.877 19.0994C101.248 19.0994 100.685 18.9503 100.191 18.652C99.6983 18.3513 99.31 17.9216 99.0259 17.3629C98.7418 16.8042 98.5998 16.1378 98.5998 15.3636C98.5998 14.5871 98.7418 13.9207 99.0259 13.3643C99.31 12.8056 99.6983 12.3771 100.191 12.0788C100.685 11.7782 101.248 11.6278 101.877 11.6278C102.505 11.6278 103.065 11.7782 103.557 12.0788C104.052 12.3771 104.441 12.8056 104.725 13.3643C105.01 13.9207 105.152 14.5871 105.152 15.3636ZM104.065 15.3636C104.065 14.7718 103.969 14.2734 103.777 13.8686C103.588 13.4614 103.328 13.1536 102.996 12.9453C102.667 12.7346 102.294 12.6293 101.877 12.6293C101.458 12.6293 101.084 12.7346 100.755 12.9453C100.426 13.1536 100.166 13.4614 99.9741 13.8686C99.7847 14.2734 99.69 14.7718 99.69 15.3636C99.69 15.9555 99.7847 16.455 99.9741 16.8622C100.166 17.267 100.426 17.5748 100.755 17.7855C101.084 17.9938 101.458 18.098 101.877 18.098C102.294 18.098 102.667 17.9938 102.996 17.7855C103.328 17.5748 103.588 17.267 103.777 16.8622C103.969 16.455 104.065 15.9555 104.065 15.3636ZM106.52 19V11.7273H109.112C109.675 11.7273 110.143 11.8243 110.515 12.0185C110.889 12.2126 111.168 12.4813 111.353 12.8246C111.537 13.1655 111.63 13.5597 111.63 14.0071C111.63 14.4522 111.536 14.844 111.349 15.1825C111.165 15.5187 110.885 15.7803 110.511 15.9673C110.14 16.1544 109.672 16.2479 109.108 16.2479H107.145V15.3033H109.009C109.364 15.3033 109.653 15.2524 109.876 15.1506C110.1 15.0488 110.265 14.9008 110.369 14.7067C110.473 14.5125 110.525 14.2794 110.525 14.0071C110.525 13.7325 110.472 13.4946 110.366 13.2933C110.261 13.0921 110.097 12.9382 109.872 12.8317C109.649 12.7228 109.357 12.6683 108.995 12.6683H107.617V19H106.52ZM110.11 15.7188L111.907 19H110.657L108.895 15.7188H110.11ZM114.062 11.7273V19H112.965V11.7273H114.062ZM121.978 15.3636C121.978 16.1402 121.836 16.8078 121.552 17.3665C121.268 17.9228 120.878 18.3513 120.383 18.652C119.891 18.9503 119.331 19.0994 118.704 19.0994C118.074 19.0994 117.512 18.9503 117.017 18.652C116.524 18.3513 116.136 17.9216 115.852 17.3629C115.568 16.8042 115.426 16.1378 115.426 15.3636C115.426 14.5871 115.568 13.9207 115.852 13.3643C116.136 12.8056 116.524 12.3771 117.017 12.0788C117.512 11.7782 118.074 11.6278 118.704 11.6278C119.331 11.6278 119.891 11.7782 120.383 12.0788C120.878 12.3771 121.268 12.8056 121.552 13.3643C121.836 13.9207 121.978 14.5871 121.978 15.3636ZM120.891 15.3636C120.891 14.7718 120.795 14.2734 120.604 13.8686C120.414 13.4614 120.154 13.1536 119.822 12.9453C119.493 12.7346 119.12 12.6293 118.704 12.6293C118.285 12.6293 117.911 12.7346 117.581 12.9453C117.252 13.1536 116.992 13.4614 116.8 13.8686C116.611 14.2734 116.516 14.7718 116.516 15.3636C116.516 15.9555 116.611 16.455 116.8 16.8622C116.992 17.267 117.252 17.5748 117.581 17.7855C117.911 17.9938 118.285 18.098 118.704 18.098C119.12 18.098 119.493 17.9938 119.822 17.7855C120.154 17.5748 120.414 17.267 120.604 16.8622C120.795 16.455 120.891 15.9555 120.891 15.3636ZM128.347 19H125.992V11.7273H128.421C129.134 11.7273 129.746 11.8729 130.257 12.1641C130.769 12.4529 131.16 12.8684 131.433 13.4105C131.707 13.9503 131.845 14.5978 131.845 15.353C131.845 16.1106 131.706 16.7616 131.429 17.3061C131.155 17.8506 130.757 18.2696 130.236 18.5632C129.715 18.8544 129.085 19 128.347 19ZM127.09 18.0412H128.286C128.84 18.0412 129.301 17.937 129.668 17.7287C130.035 17.518 130.309 17.2138 130.492 16.8161C130.674 16.416 130.765 15.9283 130.765 15.353C130.765 14.7824 130.674 14.2983 130.492 13.9006C130.312 13.5028 130.043 13.201 129.686 12.995C129.328 12.7891 128.884 12.6861 128.354 12.6861H127.09V18.0412ZM133.209 19V11.7273H137.769V12.6719H134.306V14.8878H137.531V15.8288H134.306V18.0554H137.811V19H133.209ZM142.495 19H141.331L143.948 11.7273H145.216L147.833 19H146.668L144.612 13.0483H144.555L142.495 19ZM142.691 16.152H146.469V17.0753H142.691V16.152ZM154.753 11.7273V19H153.744L150.048 13.6662H149.98V19H148.883V11.7273H149.899L153.599 17.0682H153.666V11.7273H154.753ZM156.968 19H155.803L158.42 11.7273H159.688L162.305 19H161.141L159.085 13.0483H159.028L156.968 19ZM157.163 16.152H160.942V17.0753H157.163V16.152ZM163.356 19V11.7273H164.453V18.0554H167.748V19H163.356ZM170.097 11.7273V19H169V11.7273H170.097ZM175.662 13.6378C175.624 13.3016 175.468 13.0412 175.193 12.8565C174.919 12.6695 174.573 12.576 174.156 12.576C173.858 12.576 173.6 12.6233 173.382 12.718C173.164 12.8104 172.995 12.9382 172.874 13.1016C172.756 13.2625 172.697 13.446 172.697 13.652C172.697 13.8248 172.737 13.974 172.818 14.0994C172.901 14.2249 173.008 14.3303 173.141 14.4155C173.276 14.4983 173.42 14.5682 173.574 14.625C173.728 14.6795 173.876 14.7244 174.018 14.7599L174.728 14.9446C174.96 15.0014 175.198 15.0784 175.442 15.1754C175.686 15.2725 175.912 15.4003 176.12 15.5589C176.329 15.7176 176.497 15.9141 176.624 16.1484C176.755 16.3828 176.82 16.6634 176.82 16.9901C176.82 17.402 176.713 17.7678 176.5 18.0874C176.289 18.407 175.983 18.6591 175.58 18.8438C175.18 19.0284 174.696 19.1207 174.128 19.1207C173.584 19.1207 173.112 19.0343 172.715 18.8615C172.317 18.6887 172.006 18.4437 171.781 18.1264C171.556 17.8068 171.432 17.428 171.408 16.9901H172.509C172.53 17.2528 172.615 17.4718 172.764 17.647C172.916 17.8198 173.109 17.9489 173.343 18.0341C173.58 18.117 173.839 18.1584 174.121 18.1584C174.431 18.1584 174.707 18.1098 174.948 18.0128C175.192 17.9134 175.384 17.776 175.524 17.6009C175.663 17.4233 175.733 17.2161 175.733 16.9794C175.733 16.764 175.672 16.5876 175.548 16.4503C175.428 16.313 175.263 16.1993 175.055 16.1094C174.849 16.0194 174.616 15.9401 174.355 15.8714L173.496 15.6371C172.914 15.4785 172.452 15.2453 172.111 14.9375C171.772 14.6297 171.603 14.2225 171.603 13.7159C171.603 13.2969 171.717 12.9311 171.944 12.6186C172.171 12.3061 172.479 12.0634 172.867 11.8906C173.256 11.7154 173.694 11.6278 174.181 11.6278C174.674 11.6278 175.108 11.7143 175.485 11.8871C175.863 12.0599 176.162 12.2978 176.379 12.6009C176.597 12.9015 176.711 13.2472 176.72 13.6378H175.662ZM179.228 11.7273V19H178.131V11.7273H179.228ZM184.793 13.6378C184.755 13.3016 184.599 13.0412 184.324 12.8565C184.05 12.6695 183.704 12.576 183.287 12.576C182.989 12.576 182.731 12.6233 182.513 12.718C182.295 12.8104 182.126 12.9382 182.005 13.1016C181.887 13.2625 181.828 13.446 181.828 13.652C181.828 13.8248 181.868 13.974 181.949 14.0994C182.031 14.2249 182.139 14.3303 182.272 14.4155C182.407 14.4983 182.551 14.5682 182.705 14.625C182.859 14.6795 183.007 14.7244 183.149 14.7599L183.859 14.9446C184.091 15.0014 184.329 15.0784 184.573 15.1754C184.817 15.2725 185.043 15.4003 185.251 15.5589C185.459 15.7176 185.627 15.9141 185.755 16.1484C185.886 16.3828 185.951 16.6634 185.951 16.9901C185.951 17.402 185.844 17.7678 185.631 18.0874C185.42 18.407 185.114 18.6591 184.711 18.8438C184.311 19.0284 183.827 19.1207 183.259 19.1207C182.714 19.1207 182.243 19.0343 181.846 18.8615C181.448 18.6887 181.136 18.4437 180.912 18.1264C180.687 17.8068 180.562 17.428 180.539 16.9901H181.64C181.661 17.2528 181.746 17.4718 181.895 17.647C182.047 17.8198 182.24 17.9489 182.474 18.0341C182.711 18.117 182.97 18.1584 183.252 18.1584C183.562 18.1584 183.838 18.1098 184.079 18.0128C184.323 17.9134 184.515 17.776 184.654 17.6009C184.794 17.4233 184.864 17.2161 184.864 16.9794C184.864 16.764 184.802 16.5876 184.679 16.4503C184.559 16.313 184.394 16.1993 184.186 16.1094C183.98 16.0194 183.747 15.9401 183.486 15.8714L182.627 15.6371C182.044 15.4785 181.583 15.2453 181.242 14.9375C180.903 14.6297 180.734 14.2225 180.734 13.7159C180.734 13.2969 180.848 12.9311 181.075 12.6186C181.302 12.3061 181.61 12.0634 181.998 11.8906C182.386 11.7154 182.824 11.6278 183.312 11.6278C183.805 11.6278 184.239 11.7143 184.615 11.8871C184.994 12.0599 185.292 12.2978 185.51 12.6009C185.728 12.9015 185.842 13.2472 185.851 13.6378H184.793ZM52.799 34V26.7273H55.4624C55.9785 26.7273 56.4058 26.8125 56.7443 26.983C57.0829 27.151 57.3362 27.3795 57.5043 27.6683C57.6723 27.9548 57.7564 28.2779 57.7564 28.6378C57.7564 28.9408 57.7008 29.1965 57.5895 29.4048C57.4782 29.6108 57.3291 29.7765 57.142 29.902C56.9574 30.0251 56.7538 30.1151 56.5312 30.1719V30.2429C56.7727 30.2547 57.0083 30.3329 57.2379 30.4773C57.4699 30.6193 57.6617 30.8217 57.8132 31.0845C57.9647 31.3473 58.0405 31.6669 58.0405 32.0433C58.0405 32.415 57.9529 32.7488 57.7777 33.0447C57.6049 33.3383 57.3374 33.5715 56.9751 33.7443C56.6129 33.9148 56.1501 34 55.5866 34H52.799ZM53.8963 33.0589H55.4801C56.0057 33.0589 56.3821 32.9571 56.6094 32.7536C56.8366 32.55 56.9503 32.2955 56.9503 31.9901C56.9503 31.7604 56.8923 31.5497 56.7763 31.358C56.6603 31.1662 56.4946 31.0135 56.2791 30.8999C56.0661 30.7862 55.8127 30.7294 55.5192 30.7294H53.8963V33.0589ZM53.8963 29.8736H55.3665C55.6127 29.8736 55.834 29.8262 56.0305 29.7315C56.2294 29.6368 56.3868 29.5043 56.5028 29.3338C56.6212 29.161 56.6804 28.9574 56.6804 28.723C56.6804 28.4223 56.575 28.1702 56.3643 27.9666C56.1536 27.763 55.8305 27.6612 55.3949 27.6612H53.8963V29.8736ZM59.9563 34H58.7915L61.4087 26.7273H62.6765L65.2937 34H64.1289L62.0728 28.0483H62.016L59.9563 34ZM60.1516 31.152H63.93V32.0753H60.1516V31.152ZM66.3439 34V26.7273H67.4412V33.0554H70.7367V34H66.3439ZM74.3429 34H71.9885V26.7273H74.4174C75.13 26.7273 75.742 26.8729 76.2534 27.1641C76.7647 27.4529 77.1565 27.8684 77.4288 28.4105C77.7034 28.9503 77.8407 29.5978 77.8407 30.353C77.8407 31.1106 77.7022 31.7616 77.4252 32.3061C77.1506 32.8506 76.7529 33.2696 76.2321 33.5632C75.7112 33.8544 75.0815 34 74.3429 34ZM73.0858 33.0412H74.2825C74.8365 33.0412 75.2969 32.937 75.6639 32.7287C76.0308 32.518 76.3055 32.2138 76.4877 31.8161C76.67 31.416 76.7612 30.9283 76.7612 30.353C76.7612 29.7824 76.67 29.2983 76.4877 28.9006C76.3078 28.5028 76.0391 28.201 75.6816 27.995C75.3242 27.7891 74.8803 27.6861 74.35 27.6861H73.0858V33.0412ZM85.5227 30.3636C85.5227 31.1402 85.3807 31.8078 85.0966 32.3665C84.8125 32.9228 84.4231 33.3513 83.9283 33.652C83.4358 33.9503 82.8759 34.0994 82.2486 34.0994C81.6188 34.0994 81.0566 33.9503 80.5618 33.652C80.0694 33.3513 79.6811 32.9216 79.397 32.3629C79.1129 31.8042 78.9709 31.1378 78.9709 30.3636C78.9709 29.5871 79.1129 28.9207 79.397 28.3643C79.6811 27.8056 80.0694 27.3771 80.5618 27.0788C81.0566 26.7782 81.6188 26.6278 82.2486 26.6278C82.8759 26.6278 83.4358 26.7782 83.9283 27.0788C84.4231 27.3771 84.8125 27.8056 85.0966 28.3643C85.3807 28.9207 85.5227 29.5871 85.5227 30.3636ZM84.4361 30.3636C84.4361 29.7718 84.3402 29.2734 84.1484 28.8686C83.959 28.4614 83.6986 28.1536 83.3672 27.9453C83.0381 27.7346 82.6652 27.6293 82.2486 27.6293C81.8295 27.6293 81.4555 27.7346 81.1264 27.9453C80.7973 28.1536 80.5369 28.4614 80.3452 28.8686C80.1558 29.2734 80.0611 29.7718 80.0611 30.3636C80.0611 30.9555 80.1558 31.455 80.3452 31.8622C80.5369 32.267 80.7973 32.5748 81.1264 32.7855C81.4555 32.9938 81.8295 33.098 82.2486 33.098C82.6652 33.098 83.0381 32.9938 83.3672 32.7855C83.6986 32.5748 83.959 32.267 84.1484 31.8622C84.3402 31.455 84.4361 30.9555 84.4361 30.3636ZM86.8908 26.7273H88.2225L90.5378 32.3807H90.623L92.9384 26.7273H94.2701V34H93.226V28.7372H93.1586L91.0137 33.9893H90.1472L88.0023 28.7337H87.9348V34H86.8908V26.7273ZM96.4798 34H95.315L97.9322 26.7273H99.1999L101.817 34H100.652L98.5962 28.0483H98.5394L96.4798 34ZM96.6751 31.152H100.453V32.0753H96.6751V31.152ZM110.436 29.0249C110.367 28.8094 110.275 28.6165 110.159 28.446C110.045 28.2732 109.909 28.1264 109.75 28.0057C109.592 27.8826 109.411 27.7891 109.207 27.7251C109.006 27.6612 108.784 27.6293 108.543 27.6293C108.133 27.6293 107.764 27.7346 107.435 27.9453C107.106 28.156 106.846 28.465 106.654 28.8722C106.464 29.277 106.37 29.773 106.37 30.3601C106.37 30.9496 106.466 31.4479 106.657 31.8551C106.849 32.2623 107.112 32.5713 107.446 32.782C107.779 32.9927 108.159 33.098 108.586 33.098C108.981 33.098 109.325 33.0175 109.619 32.8565C109.915 32.6955 110.143 32.4683 110.304 32.1747C110.468 31.8788 110.549 31.5308 110.549 31.1307L110.833 31.1839H108.752V30.2784H111.611V31.1058C111.611 31.7166 111.481 32.2469 111.221 32.6967C110.962 33.1442 110.605 33.4898 110.148 33.7337C109.694 33.9775 109.173 34.0994 108.586 34.0994C107.927 34.0994 107.35 33.9479 106.853 33.6449C106.358 33.3419 105.972 32.9122 105.695 32.3558C105.418 31.7971 105.279 31.1342 105.279 30.3672C105.279 29.7872 105.36 29.2663 105.521 28.8047C105.682 28.343 105.908 27.9512 106.199 27.6293C106.493 27.3049 106.837 27.0575 107.233 26.8871C107.63 26.7143 108.065 26.6278 108.536 26.6278C108.929 26.6278 109.295 26.6858 109.633 26.8018C109.974 26.9179 110.277 27.0824 110.542 27.2955C110.81 27.5085 111.031 27.7618 111.206 28.0554C111.382 28.3466 111.5 28.6697 111.561 29.0249H110.436ZM113.004 34V26.7273H115.596C116.16 26.7273 116.627 26.8243 116.999 27.0185C117.373 27.2126 117.653 27.4813 117.837 27.8246C118.022 28.1655 118.114 28.5597 118.114 29.0071C118.114 29.4522 118.021 29.844 117.834 30.1825C117.649 30.5187 117.37 30.7803 116.996 30.9673C116.624 31.1544 116.156 31.2479 115.593 31.2479H113.629V30.3033H115.493C115.849 30.3033 116.137 30.2524 116.36 30.1506C116.585 30.0488 116.749 29.9008 116.854 29.7067C116.958 29.5125 117.01 29.2794 117.01 29.0071C117.01 28.7325 116.956 28.4946 116.85 28.2933C116.746 28.0921 116.581 27.9382 116.356 27.8317C116.134 27.7228 115.841 27.6683 115.479 27.6683H114.101V34H113.004ZM116.594 30.7188L118.391 34H117.141L115.38 30.7188H116.594ZM119.449 34V26.7273H124.009V27.6719H120.547V29.8878H123.771V30.8288H120.547V33.0554H124.052V34H119.449ZM130.397 29.0249C130.328 28.8094 130.236 28.6165 130.12 28.446C130.006 28.2732 129.87 28.1264 129.711 28.0057C129.553 27.8826 129.372 27.7891 129.168 27.7251C128.967 27.6612 128.745 27.6293 128.504 27.6293C128.094 27.6293 127.725 27.7346 127.396 27.9453C127.067 28.156 126.806 28.465 126.615 28.8722C126.425 29.277 126.331 29.773 126.331 30.3601C126.331 30.9496 126.426 31.4479 126.618 31.8551C126.81 32.2623 127.073 32.5713 127.407 32.782C127.74 32.9927 128.12 33.098 128.547 33.098C128.942 33.098 129.286 33.0175 129.58 32.8565C129.876 32.6955 130.104 32.4683 130.265 32.1747C130.429 31.8788 130.51 31.5308 130.51 31.1307L130.794 31.1839H128.713V30.2784H131.572V31.1058C131.572 31.7166 131.442 32.2469 131.181 32.6967C130.923 33.1442 130.566 33.4898 130.109 33.7337C129.654 33.9775 129.134 34.0994 128.547 34.0994C127.888 34.0994 127.311 33.9479 126.814 33.6449C126.319 33.3419 125.933 32.9122 125.656 32.3558C125.379 31.7971 125.24 31.1342 125.24 30.3672C125.24 29.7872 125.321 29.2663 125.482 28.8047C125.643 28.343 125.869 27.9512 126.16 27.6293C126.454 27.3049 126.798 27.0575 127.194 26.8871C127.591 26.7143 128.026 26.6278 128.497 26.6278C128.89 26.6278 129.256 26.6858 129.594 26.8018C129.935 26.9179 130.238 27.0824 130.503 27.2955C130.771 27.5085 130.992 27.7618 131.167 28.0554C131.342 28.3466 131.461 28.6697 131.522 29.0249H130.397ZM139.282 30.3636C139.282 31.1402 139.14 31.8078 138.856 32.3665C138.572 32.9228 138.183 33.3513 137.688 33.652C137.196 33.9503 136.636 34.0994 136.008 34.0994C135.379 34.0994 134.816 33.9503 134.322 33.652C133.829 33.3513 133.441 32.9216 133.157 32.3629C132.873 31.8042 132.731 31.1378 132.731 30.3636C132.731 29.5871 132.873 28.9207 133.157 28.3643C133.441 27.8056 133.829 27.3771 134.322 27.0788C134.816 26.7782 135.379 26.6278 136.008 26.6278C136.636 26.6278 137.196 26.7782 137.688 27.0788C138.183 27.3771 138.572 27.8056 138.856 28.3643C139.14 28.9207 139.282 29.5871 139.282 30.3636ZM138.196 30.3636C138.196 29.7718 138.1 29.2734 137.908 28.8686C137.719 28.4614 137.458 28.1536 137.127 27.9453C136.798 27.7346 136.425 27.6293 136.008 27.6293C135.589 27.6293 135.215 27.7346 134.886 27.9453C134.557 28.1536 134.297 28.4614 134.105 28.8686C133.916 29.2734 133.821 29.7718 133.821 30.3636C133.821 30.9555 133.916 31.455 134.105 31.8622C134.297 32.267 134.557 32.5748 134.886 32.7855C135.215 32.9938 135.589 33.098 136.008 33.098C136.425 33.098 136.798 32.9938 137.127 32.7855C137.458 32.5748 137.719 32.267 137.908 31.8622C138.1 31.455 138.196 30.9555 138.196 30.3636ZM140.651 34V26.7273H143.243C143.806 26.7273 144.274 26.8243 144.646 27.0185C145.02 27.2126 145.299 27.4813 145.484 27.8246C145.668 28.1655 145.761 28.5597 145.761 29.0071C145.761 29.4522 145.667 29.844 145.48 30.1825C145.295 30.5187 145.016 30.7803 144.642 30.9673C144.27 31.1544 143.803 31.2479 143.239 31.2479H141.276V30.3033H143.14C143.495 30.3033 143.784 30.2524 144.006 30.1506C144.231 30.0488 144.396 29.9008 144.5 29.7067C144.604 29.5125 144.656 29.2794 144.656 29.0071C144.656 28.7325 144.603 28.4946 144.496 28.2933C144.392 28.0921 144.228 27.9382 144.003 27.8317C143.78 27.7228 143.488 27.6683 143.126 27.6683H141.748V34H140.651ZM144.241 30.7188L146.038 34H144.788L143.026 30.7188H144.241ZM148.193 26.7273V34H147.096V26.7273H148.193ZM155.661 26.7273V34H154.653L150.956 28.6662H150.888V34H149.791V26.7273H150.807L154.507 32.0682H154.575V26.7273H155.661ZM158.359 26.7273V34H157.262V26.7273H158.359Z" fill="white"/>
</svg>
